<svg class="zdog-canvas" viewBox="-85 -80 170 170" style="touch-action: none;" xmlns="http://www.w3.org/2000/svg">
  <rect x="-85" y="-80" width="170" rx="22" height="170" fill="#5522ee"/>
  <path stroke-linecap="round" stroke-linejoin="round" d="M-40.211,8.828 L-30.225,11.166 C-29.345,11.372 -28.354,11.802 -27.959,12.148 C-27.564,12.494 -27.143,13.164 -26.997,13.679 C-26.85,14.193 -26.736,15.175 -26.736,15.923 C-26.736,16.67 -26.824,17.584 -26.937,18.012 C-27.049,18.439 -27.26,18.93 -27.418,19.133 C-27.576,19.336 -27.944,19.52 -28.26,19.553 C-28.621,19.628 -29.516,19.543 -30.305,19.358 L-46.989,15.451 C-47.508,15.329 -48.28,14.899 -48.754,14.468 C-49.746,13.568 -50.518,11.747 -50.518,10.305 C-50.518,9.611 -50.308,8.788 -50.037,8.425 L-37.604,-9.025 L-46.829,-11.185 C-47.37,-11.312 -47.993,-11.489 -48.252,-11.59 C-48.512,-11.69 -48.994,-11.98 -49.355,-12.251 C-50.009,-12.778 -50.518,-14.455 -50.518,-16.083 C-50.518,-17.792 -50.044,-19.301 -49.435,-19.532 C-49.097,-19.666 -48.632,-19.754 -48.373,-19.734 C-48.113,-19.713 -47.49,-19.598 -46.949,-19.471 L-30.827,-15.696 C-30.308,-15.574 -29.536,-15.144 -29.062,-14.713 C-28.588,-14.281 -28.018,-13.483 -27.759,-12.889 C-27.499,-12.294 -27.298,-11.271 -27.298,-10.55 C-27.298,-9.829 -27.508,-8.986 -27.779,-8.622 L-40.211,8.828 L-40.211,8.828 M-15.186,-1.875 L-12.579,-1.55 C-11.022,-1.185 -9.601,-0.063 -9.331,1.015 C-9.195,1.554 -9.09,2.616 -9.09,3.444 C-9.09,4.272 -9.204,5.273 -9.351,5.732 C-9.497,6.192 -9.857,6.658 -10.173,6.798 C-10.647,7.007 -11.717,7.005 -12.619,6.794 L-15.186,6.003 L-15.186,18.723 C-15.186,19.737 -15.353,20.872 -15.567,21.315 C-15.781,21.759 -16.29,22.149 -16.73,22.206 C-17.17,22.263 -18.056,22.18 -18.755,22.016 C-19.455,21.852 -20.323,21.514 -20.74,21.243 C-21.158,20.971 -21.623,20.426 -21.803,19.997 C-21.984,19.568 -22.15,18.978 -22.184,18.65 C-22.218,18.322 -22.244,17.589 -22.244,16.975 L-22.244,4.397 L-23.688,4.059 C-24.275,3.869 -24.924,3.467 -25.172,3.142 C-25.601,2.535 -25.934,0.941 -25.934,-0.501 C-25.934,-2.69 -24.899,-4.15 -23.568,-3.839 L-22.244,-3.529 L-22.244,-6.044 C-22.244,-8.1 -21.279,-10.77 -20.039,-12.148 C-18.798,-13.526 -16.008,-14.171 -13.662,-13.621 C-13.143,-13.5 -12.538,-13.327 -12.278,-13.226 C-12.019,-13.125 -11.554,-12.819 -11.215,-12.526 C-10.606,-12.037 -10.133,-10.327 -10.133,-8.618 C-10.133,-7.337 -10.431,-5.974 -10.814,-5.503 C-11.13,-5.15 -11.902,-4.957 -12.579,-5.062 C-12.782,-5.109 -13.273,-5.225 -13.702,-5.325 C-14.537,-5.52 -15.186,-5.153 -15.186,-4.486 L-15.186,-1.875 L-15.186,-1.875 M-8.288,11.938 C-8.288,8.734 -6.814,4.968 -4.919,3.329 C-3.024,1.691 0.345,0.86 2.781,1.431 C5.217,2.001 8.569,4.396 10.441,6.903 C12.313,9.411 13.77,13.853 13.77,17.056 C13.77,19.272 13.015,22.158 12.045,23.653 C11.075,25.148 9.242,26.691 7.854,27.18 C6.467,27.67 4.23,27.779 2.741,27.43 C1.252,27.082 -0.994,25.881 -2.392,24.686 C-3.791,23.49 -5.625,21.068 -6.583,19.148 C-7.542,17.228 -8.288,14.074 -8.288,11.938 L-8.288,11.938 M0.094,17.294 C0.816,18.118 1.956,18.893 2.701,19.068 C3.445,19.242 4.603,18.994 5.348,18.501 C6.092,18.008 6.671,16.607 6.671,15.299 C6.671,13.991 6.127,12.348 5.428,11.543 C4.729,10.739 3.553,9.965 2.741,9.775 C1.929,9.584 0.753,9.828 0.054,10.332 C-0.645,10.835 -1.189,12.234 -1.189,13.529 C-1.189,14.824 -0.628,16.471 0.094,17.294 L0.094,17.294 M28.127,7.937 C30.383,8.465 33.305,10.738 34.805,13.131 C36.305,15.525 37.472,19.671 37.472,22.608 L37.472,30.961 C37.472,31.575 37.445,32.285 37.412,32.584 C37.378,32.883 37.229,33.378 37.071,33.715 C36.755,34.361 35.386,34.602 33.942,34.263 C32.341,33.888 30.902,32.783 30.654,31.737 C30.519,31.252 30.413,30.168 30.413,29.26 L30.413,20.907 C30.413,19.812 30.001,18.387 29.471,17.649 C28.941,16.91 27.835,16.174 26.944,15.965 C26.053,15.757 24.93,15.992 24.378,16.503 C23.825,17.015 23.395,18.222 23.395,19.263 L23.395,27.664 C23.395,28.278 23.369,28.988 23.335,29.287 C23.301,29.586 23.134,30.077 22.954,30.408 C22.661,31.06 21.309,31.305 19.866,30.967 C18.445,30.634 17.093,29.757 16.778,28.962 C16.62,28.524 16.471,27.939 16.437,27.624 C16.403,27.309 16.377,26.587 16.377,25.973 L16.377,9.171 C16.377,8.584 16.403,7.894 16.437,7.595 C16.471,7.296 16.637,6.806 16.818,6.474 C17.134,5.881 18.485,5.678 19.906,6.011 C21.282,6.333 22.598,7.119 22.914,7.807 C23.139,8.314 23.315,9.206 23.315,9.847 C23.405,9.681 23.721,9.34 24.037,9.067 C24.352,8.794 24.826,8.469 25.119,8.324 C25.886,7.889 27.202,7.72 28.127,7.937 L28.127,7.937 M52.551,22.058 L49.944,21.257 L49.944,27.807 C49.944,28.528 50.093,29.373 50.285,29.738 C50.477,30.103 51.038,30.484 51.569,30.608 C52.099,30.732 52.73,30.911 53.012,31.017 C53.294,31.123 53.759,31.429 54.075,31.717 C54.594,32.186 54.998,33.671 54.998,35.113 C54.998,36.795 54.506,38.279 53.875,38.505 C53.536,38.612 53.071,38.68 52.812,38.659 C52.552,38.638 51.965,38.532 51.468,38.416 C49.122,37.866 46.35,36.241 45.132,34.701 C43.914,33.161 42.966,29.637 42.966,26.647 L42.966,19.623 C42.537,19.603 41.818,19.496 41.322,19.38 C40.825,19.264 40.185,18.761 39.858,18.23 C39.531,17.7 39.276,16.436 39.276,15.341 C39.276,14.247 39.364,13.032 39.477,12.564 C39.59,12.097 39.835,11.604 40.038,11.438 C40.399,11.176 41.101,11.07 41.643,11.197 L42.966,11.697 L42.966,6.808 C42.966,6.194 42.992,5.494 43.026,5.209 C43.06,4.923 43.227,4.464 43.407,4.159 C43.7,3.56 45.052,3.357 46.495,3.695 C48.029,4.055 49.451,5.156 49.744,6.212 C49.857,6.666 49.944,7.745 49.944,8.68 L49.944,13.331 C50.937,13.457 52.104,13.647 52.611,13.766 C53.119,13.885 53.715,14.056 53.975,14.156 C54.234,14.257 54.699,14.563 55.038,14.856 C55.624,15.341 56.08,17.046 56.08,18.755 C56.08,20.437 55.607,21.925 54.998,22.156 C54.659,22.264 54.194,22.331 53.935,22.31 C53.675,22.29 53.07,22.179 52.551,22.058 L52.551,22.058 Z" stroke="#aab" stroke-width="1" fill="#aab"></path><path stroke-linecap="round" stroke-linejoin="round" d="M-43.794,10.341 L-33.808,12.68 C-32.929,12.886 -31.937,13.316 -31.542,13.662 C-31.148,14.008 -30.727,14.678 -30.58,15.192 C-30.433,15.707 -30.319,16.689 -30.319,17.437 C-30.319,18.184 -30.407,19.098 -30.52,19.526 C-30.633,19.953 -30.843,20.444 -31.001,20.647 C-31.159,20.85 -31.527,21.034 -31.843,21.067 C-32.204,21.142 -33.099,21.057 -33.889,20.872 L-50.572,16.965 C-51.091,16.843 -51.863,16.413 -52.337,15.982 C-53.329,15.082 -54.101,13.261 -54.101,11.819 C-54.101,11.125 -53.891,10.302 -53.62,9.939 L-41.188,-7.511 L-50.412,-9.671 C-50.953,-9.798 -51.576,-9.975 -51.835,-10.076 C-52.095,-10.177 -52.577,-10.466 -52.938,-10.737 C-53.593,-11.264 -54.101,-12.941 -54.101,-14.569 C-54.101,-16.278 -53.628,-17.787 -53.019,-18.018 C-52.68,-18.152 -52.215,-18.241 -51.956,-18.22 C-51.696,-18.199 -51.073,-18.084 -50.532,-17.958 L-34.41,-14.182 C-33.891,-14.06 -33.119,-13.63 -32.645,-13.199 C-32.172,-12.768 -31.601,-11.969 -31.342,-11.375 C-31.082,-10.78 -30.881,-9.757 -30.881,-9.036 C-30.881,-8.315 -31.091,-7.472 -31.362,-7.108 L-43.794,10.341 L-43.794,10.341 M-18.769,-0.362 L-16.162,-0.036 C-14.606,0.329 -13.184,1.451 -12.914,2.529 C-12.778,3.067 -12.673,4.13 -12.673,4.958 C-12.673,5.786 -12.787,6.787 -12.934,7.246 C-13.08,7.706 -13.44,8.172 -13.756,8.311 C-14.23,8.521 -15.3,8.519 -16.202,8.308 L-18.769,7.517 L-18.769,20.237 C-18.769,21.251 -18.936,22.385 -19.15,22.829 C-19.364,23.273 -19.873,23.662 -20.313,23.72 C-20.753,23.777 -21.639,23.694 -22.338,23.53 C-23.038,23.366 -23.906,23.028 -24.324,22.757 C-24.741,22.485 -25.206,21.94 -25.386,21.511 C-25.567,21.082 -25.733,20.492 -25.767,20.164 C-25.801,19.836 -25.827,19.103 -25.827,18.489 L-25.827,5.911 L-27.271,5.573 C-27.858,5.382 -28.507,4.981 -28.755,4.656 C-29.184,4.048 -29.517,2.455 -29.517,1.013 C-29.517,-1.176 -28.482,-2.636 -27.151,-2.325 L-25.827,-2.015 L-25.827,-4.53 C-25.827,-6.586 -24.862,-9.257 -23.622,-10.635 C-22.381,-12.013 -19.591,-12.657 -17.245,-12.107 C-16.726,-11.986 -16.121,-11.813 -15.861,-11.712 C-15.602,-11.611 -15.137,-11.305 -14.799,-11.012 C-14.19,-10.523 -13.716,-8.813 -13.716,-7.104 C-13.716,-5.823 -14.014,-4.46 -14.398,-3.989 C-14.713,-3.636 -15.485,-3.443 -16.162,-3.548 C-16.365,-3.596 -16.857,-3.711 -17.285,-3.811 C-18.12,-4.007 -18.769,-3.639 -18.769,-2.972 L-18.769,-0.362 L-18.769,-0.362 M-11.871,13.452 C-11.871,10.248 -10.397,6.482 -8.502,4.843 C-6.607,3.205 -3.238,2.374 -0.802,2.945 C1.634,3.515 4.986,5.909 6.858,8.417 C8.73,10.925 10.187,15.367 10.187,18.57 C10.187,20.786 9.432,23.672 8.462,25.167 C7.492,26.662 5.659,28.205 4.271,28.694 C2.884,29.184 0.647,29.293 -0.842,28.944 C-2.331,28.596 -4.577,27.395 -5.976,26.199 C-7.374,25.004 -9.208,22.581 -10.167,20.662 C-11.125,18.742 -11.871,15.587 -11.871,13.452 L-11.871,13.452 M-3.489,18.808 C-2.767,19.631 -1.627,20.407 -0.882,20.582 C-0.138,20.756 1.02,20.508 1.765,20.015 C2.509,19.522 3.088,18.121 3.088,16.813 C3.088,15.505 2.544,13.861 1.845,13.057 C1.145,12.252 -0.03,11.479 -0.842,11.288 C-1.654,11.098 -2.83,11.342 -3.529,11.846 C-4.229,12.349 -4.772,13.748 -4.772,15.043 C-4.772,16.338 -4.211,17.985 -3.489,18.808 L-3.489,18.808 M24.544,9.45 C26.8,9.979 29.721,12.252 31.222,14.645 C32.722,17.039 33.889,21.185 33.889,24.121 L33.889,32.475 C33.889,33.089 33.862,33.799 33.828,34.098 C33.795,34.397 33.645,34.892 33.487,35.229 C33.172,35.875 31.803,36.115 30.359,35.777 C28.758,35.402 27.319,34.297 27.071,33.251 C26.935,32.765 26.83,31.682 26.83,30.774 L26.83,22.421 C26.83,21.326 26.418,19.901 25.888,19.163 C25.358,18.424 24.252,17.688 23.361,17.479 C22.47,17.27 21.347,17.506 20.794,18.017 C20.242,18.528 19.812,19.736 19.812,20.777 L19.812,29.178 C19.812,29.792 19.785,30.502 19.752,30.801 C19.718,31.1 19.551,31.591 19.371,31.922 C19.077,32.574 17.726,32.819 16.283,32.48 C14.861,32.148 13.51,31.27 13.194,30.476 C13.037,30.038 12.887,29.453 12.854,29.138 C12.82,28.823 12.793,28.101 12.793,27.487 L12.793,10.685 C12.793,10.098 12.82,9.408 12.854,9.109 C12.887,8.81 13.054,8.32 13.235,7.988 C13.55,7.395 14.901,7.192 16.323,7.525 C17.699,7.847 19.015,8.633 19.331,9.321 C19.556,9.828 19.732,10.72 19.732,11.361 C19.822,11.195 20.138,10.854 20.453,10.581 C20.769,10.308 21.243,9.983 21.536,9.838 C22.303,9.403 23.619,9.234 24.544,9.45 L24.544,9.45 M48.968,23.571 L46.361,22.771 L46.361,29.321 C46.361,30.042 46.51,30.886 46.702,31.252 C46.894,31.617 47.455,31.998 47.985,32.122 C48.516,32.246 49.147,32.425 49.429,32.531 C49.711,32.637 50.176,32.943 50.492,33.231 C51.011,33.699 51.414,35.185 51.414,36.627 C51.414,38.309 50.923,39.793 50.291,40.018 C49.953,40.126 49.488,40.194 49.229,40.173 C48.969,40.152 48.381,40.046 47.885,39.929 C45.539,39.38 42.767,37.755 41.549,36.215 C40.33,34.675 39.383,31.151 39.383,28.161 L39.383,21.137 C38.954,21.116 38.235,21.01 37.739,20.894 C37.242,20.778 36.602,20.275 36.275,19.744 C35.948,19.214 35.693,17.95 35.693,16.855 C35.693,15.761 35.781,14.546 35.894,14.078 C36.007,13.611 36.252,13.118 36.455,12.952 C36.816,12.69 37.518,12.584 38.059,12.711 L39.383,13.211 L39.383,8.322 C39.383,7.708 39.409,7.008 39.443,6.722 C39.477,6.437 39.644,5.977 39.824,5.673 C40.117,5.074 41.468,4.871 42.912,5.209 C44.446,5.569 45.867,6.67 46.161,7.726 C46.273,8.18 46.361,9.259 46.361,10.194 L46.361,14.845 C47.354,14.971 48.521,15.161 49.028,15.28 C49.536,15.399 50.132,15.569 50.392,15.67 C50.651,15.771 51.116,16.077 51.454,16.37 C52.041,16.855 52.497,18.56 52.497,20.269 C52.497,21.951 52.023,23.439 51.414,23.67 C51.076,23.777 50.611,23.845 50.352,23.824 C50.092,23.804 49.487,23.693 48.968,23.571 L48.968,23.571 Z" stroke="#fff" stroke-width="1" fill="#fff"></path>
</svg>
