<svg xmlns="http://www.w3.org/2000/svg" width="240" height="240" viewBox="-100 -100 200 200">
  <rect x="-100" y="-100" width="200" height="200" fill="#ffffff"/>
  <ellipse cx="0" cy="0" rx="60" ry="60" style="fill:#999;stroke:#999;" />
  <path stroke-linecap="round" stroke-linejoin="round" d="M0.906,17.013 L-19.26,-17.013 L20.726,-17.013 Z" stroke="#07d" stroke-width="1" fill="#07d"></path><path stroke-linecap="round" stroke-linejoin="round" d="M-19.26,-17.013 L0.906,17.013 L-32.069,17.013 Z" stroke="#37B" stroke-width="1" fill="#37B"></path><path stroke-linecap="round" stroke-linejoin="round" d="M20.726,-17.013 L32.629,17.013 L0.906,17.013 Z" stroke="#0A2" stroke-width="1" fill="#0A2"></path><path stroke-linecap="round" stroke-linejoin="round" d="M0,-38.042 L-19.26,-17.013 L20.726,-17.013 Z" stroke="#37B" stroke-width="1" fill="#37B"></path><path stroke-linecap="round" stroke-linejoin="round" d="M0,38.042 L0.906,17.013 L-32.069,17.013 Z" stroke="#07D" stroke-width="1" fill="#07D"></path><path stroke-linecap="round" stroke-linejoin="round" d="M0,38.042 L32.629,17.013 L0.906,17.013 Z" stroke="#37B" stroke-width="1" fill="#37B"></path><path stroke-linecap="round" stroke-linejoin="round" d="M-32.069,17.013 L-32.629,-17.013 L-19.26,-17.013 Z" stroke="#096" stroke-width="1" fill="#096"></path><path stroke-linecap="round" stroke-linejoin="round" d="M32.629,17.013 L20.726,-17.013 L32.069,-17.013 Z" stroke="#096" stroke-width="1" fill="#096"></path><path stroke-linecap="round" stroke-linejoin="round" d="M0,-38.042 L-32.629,-17.013 L-19.26,-17.013 Z" stroke="#0A2" stroke-width="1" fill="#0A2"></path><path stroke-linecap="round" stroke-linejoin="round" d="M0,-38.042 L20.726,-17.013 L32.069,-17.013 Z" stroke="#096" stroke-width="1" fill="#096"></path><path stroke-linecap="round" stroke-linejoin="round" d="M0,38.042 L-32.069,17.013 L-20.726,17.013 Z" stroke="#eee" stroke-width="1" fill="#eee"></path><path stroke-linecap="round" stroke-linejoin="round" d="M0,38.042 L19.26,17.013 L32.629,17.013 Z" stroke="#07D" stroke-width="1" fill="#07D"></path><path stroke-linecap="round" stroke-linejoin="round" d="M-32.629,-17.013 L-32.069,17.013 L-20.726,17.013 Z" stroke="#0A2" stroke-width="1" fill="#0A2"></path><path stroke-linecap="round" stroke-linejoin="round" d="M32.069,-17.013 L19.26,17.013 L32.629,17.013 Z" stroke="#096" stroke-width="1" fill="#096"></path><path stroke-linecap="round" stroke-linejoin="round" d="M0,-38.042 L-0.906,-17.013 L-32.629,-17.013 Z" stroke="#37B" stroke-width="1" fill="#37B"></path><path stroke-linecap="round" stroke-linejoin="round" d="M0,-38.042 L32.069,-17.013 L-0.906,-17.013 Z" stroke="#eee" stroke-width="1" fill="#eee"></path><path stroke-linecap="round" stroke-linejoin="round" d="M0,38.042 L-20.726,17.013 L19.26,17.013 Z" stroke="#07D" stroke-width="1" fill="#07D"></path><path stroke-linecap="round" stroke-linejoin="round" d="M-20.726,17.013 L-0.906,-17.013 L-32.629,-17.013 Z" stroke="#0a2" stroke-width="1" fill="#0a2"></path><path stroke-linecap="round" stroke-linejoin="round" d="M19.26,17.013 L32.069,-17.013 L-0.906,-17.013 Z" stroke="#eee" stroke-width="1" fill="#eee"></path><path stroke-linecap="round" stroke-linejoin="round" d="M-0.906,-17.013 L-20.726,17.013 L19.26,17.013 Z" stroke="#37B" stroke-width="1" fill="#37B"></path>
  <text x="-85" y="18" font-weight="bold" fill="black" font-family="arial" font-size="50">Zhedra</text>
</svg>
