<svg
  width="41"
  height="40"
  xmlns="http://www.w3.org/2000/svg"
>
  <rect
    x="0"
    y="0"
    rx="15"
    width="40"
    height="40"
    style="fill:white;stroke:black;"
  />
  <rect
    id="rotateIconH"
    x="1.5"
    y="1.5"
    rx="15"
    width="37"
    height="37"
    style="fill:white;stroke:gold;stroke-width:3;"
  />
  <line x1="30" y1="14" x2="10" y2="26" style="stroke:green;stroke-width:2" />
  <line x1="10" y1="14" x2="30" y2="26" style="stroke:blue;stroke-width:2" />
  <path d="M 10 14 q 10 -5 20 0" stroke="blue" stroke-width="2" fill="none" />
  <path d="M 10 26 q -7 -6 0 -12" stroke="blue" stroke-width="2" fill="none" />
  <path d="M 30 26 q 7 -6 0 -12" stroke="blue" stroke-width="2" fill="none" />
  <path d="M 10 26 q 10 5 20 0" stroke="blue" stroke-width="2" fill="none" />
  <line x1="20" y1="20" x2="20" y2="8"   style="stroke:#F002;stroke-width:2" />
  <line x1="20" y1="20" x2="10" y2="26"  style="stroke:#0802;stroke-width:2" />
  <line x1="20" y1="20" x2="30" y2="26"  style="stroke:#00F;stroke-width:2" />
  <polygon points="20,4 17,10 23,10"  style="fill:#F002;" />
  <polygon points="10,22 7,28 13,28"  style="fill:#0802;" />
  <polygon points="30,22 33,28 27,28" style="fill:#00F;" />
  <ellipse cx="20" cy="20" rx="4" ry="4" style="fill:black;" />
</svg>
