<svg
  width="41"
  height="40"
  xmlns="http://www.w3.org/2000/svg"
>
  <rect
    x="0"
    y="0"
    rx="15"
    width="40"
    height="40"
    style="fill:white;stroke:black;"
  />
  <rect
    id="rotateIconH"
    x="1.5"
    y="1.5"
    rx="15"
    width="37"
    height="37"
    style="fill:white;stroke:#636;stroke-width:3;"
  />
  <line x1="20" y1="32" x2="20" y2="8" style="stroke:#C25;stroke-width:2" />
  <line x1="30" y1="14" x2="10" y2="26" style="stroke:#E62;stroke-width:2" />
  <path d="M 20 32 q 12 -3 11 -20" stroke="#C25" stroke-width="2" fill="none" />
  <path d="M 20 8 q 11 1 11 7" stroke="#C25" stroke-width="2" fill="none" />
  <path d="M 20 32 q -11 -1 -11 -7" stroke="#C25" stroke-width="2" fill="none" />
  <path d="M 20 8 q -13 3 -11 20" stroke="#C25" stroke-width="2" fill="none" />
  <line x1="20" y1="20" x2="20" y2="8"   style="stroke:#C25;stroke-width:2" />
  <line x1="20" y1="20" x2="10" y2="26"  style="stroke:#E622;stroke-width:2" />
  <line x1="20" y1="20" x2="30" y2="26"  style="stroke:#EA02;stroke-width:2" />
  <polygon points="20,2 17,8 23,8"  style="fill:#C25;" />
  <polygon points="10,22 7,28 13,28"  style="fill:#E622;" />
  <polygon points="30,22 33,28 27,28" style="fill:#EA02;" />
  <ellipse cx="20" cy="20" rx="4" ry="4" style="fill:black;" />
</svg>
