<svg
  width="41"
  height="40"
  xmlns="http://www.w3.org/2000/svg"
>
  <rect
    x="0"
    y="0"
    rx="15"
    width="40"
    height="40"
    style="fill:white;stroke:black;"
  />
  <rect
    id="rotateIconH"
    x="1.5"
    y="1.5"
    rx="15"
    width="37"
    height="37"
    style="fill:white;stroke:white;stroke-width:1;"
  />
  <line x1="20" y1="32" x2="20" y2="8" style="stroke:#C25;stroke-width:2" />
  <line x1="30" y1="14" x2="10" y2="26" style="stroke:#E62;stroke-width:2" />
  <line x1="10" y1="14" x2="30" y2="26" style="stroke:#EA0;stroke-width:2" />
  
  <path d="M 20 32 q 13 -3 11 -20" stroke="#C25" stroke-width="2" fill="none" />
  <path d="M 20 32 q -13 -3 -11 -20" stroke="#E62" stroke-width="2" fill="none"/>
  <path d="M 10 14 q 10 -5 20 0" stroke="#EA0" stroke-width="2" fill="none" />

  <path d="M 20 8 q 11 1 11 7" stroke="#C25" stroke-width="2" fill="none" />
  <path d="M 20 32 q -11 -1 -11 -7" stroke="#C25" stroke-width="2" fill="none" />
  <path d="M 20 8 q -11 -1 -11 7" stroke="#E62" stroke-width="2" fill="none" />
  <path d="M 20 32 q 11 1 11 -7" stroke="#E62" stroke-width="2" fill="none" />
  <path d="M 10 26 q -7 -6 0 -12" stroke="#EA0" stroke-width="2" fill="none" />
  <path d="M 30 26 q 7 -6 0 -12" stroke="#EA0" stroke-width="2" fill="none" />
  
  <path d="M 20 8 q -13 3 -11 20" stroke="#C25" stroke-width="2" fill="none" />
  <path d="M 20 8 q 13 3 11 20" stroke="#E62" stroke-width="2" fill="none" />
  <path d="M 10 26 q 10 5 20 0" stroke="#EA0" stroke-width="2" fill="none" />
  
  <ellipse cx="20" cy="20" rx="4" ry="4" style="fill:black;" />
</svg>
